# xmcd
#
# Track frame offsets:
#	150
#	11059
#	20070
#	36227
#	52392
#	64077
#	76610
#	85712
#	96057
#	106012
#
# Disc length: 1634 seconds
#
# Revision: 0
# Processed by: cddbd v1.4PL0 Copyright (c) Steve Scherf et al.
# Submitted via: dBpowerAMP V4.0
#
DISCID=7406600a
DTITLE=Five Blind Boys from Alabama - Gospel Time
DYEAR=1900
DGENRE=Gospel
TTITLE0=I'm A Rolling
TTITLE1=My Robe Will Fit Me
TTITLE2=He Looked Beyond My Faults
TTITLE3=Let's Have Church
TTITLE4=All Over Me
TTITLE5=You'll Never Walk Alone
TTITLE6=Old Time Religion
TTITLE7=Walk With Me
TTITLE8=I Got A Home In That Rock
TTITLE9=Precious Lord
EXTD=
EXTT0=
EXTT1=
EXTT2=
EXTT3=
EXTT4=
EXTT5=
EXTT6=
EXTT7=
EXTT8=
EXTT9=
PLAYORDER=
